<mxfile host="app.diagrams.net" agent="Mozilla/5.0 (Windows NT 10.0; Win64; x64) AppleWebKit/537.36 (KHTML, like Gecko) Chrome/127.0.0.0 Safari/537.36 Edg/127.0.0.0" version="24.7.7">
  <diagram name="第 1 页" id="N8yTu8ngsfM2NgkB9GH7">
    <mxGraphModel dx="1420" dy="813" grid="0" gridSize="10" guides="1" tooltips="1" connect="1" arrows="1" fold="1" page="1" pageScale="1" pageWidth="2336" pageHeight="1654" math="0" shadow="0">
      <root>
        <mxCell id="0" />
        <mxCell id="1" parent="0" />
        <mxCell id="8RS-Y_VaHB5oV3ZXM7iS-42" value="" style="group" parent="1" vertex="1" connectable="0">
          <mxGeometry x="85" y="26" width="1138" height="484" as="geometry" />
        </mxCell>
        <mxCell id="3fp7J-1nxwor3pY37bPl-29" value="" style="group;sketch=1;curveFitting=1;jiggle=2;" parent="8RS-Y_VaHB5oV3ZXM7iS-42" vertex="1" connectable="0">
          <mxGeometry x="-22" y="-16" width="1152" height="494" as="geometry" />
        </mxCell>
        <mxCell id="3fp7J-1nxwor3pY37bPl-28" value="" style="rounded=0;whiteSpace=wrap;html=1;" parent="3fp7J-1nxwor3pY37bPl-29" vertex="1">
          <mxGeometry width="1152" height="494" as="geometry" />
        </mxCell>
        <mxCell id="8RS-Y_VaHB5oV3ZXM7iS-1" value="&lt;b style=&quot;font-size: 20px;&quot;&gt;V8初始化&lt;/b&gt;" style="rounded=1;whiteSpace=wrap;html=1;sketch=1;curveFitting=1;jiggle=2;fontSize=20;fontFamily=ZCOOL KuaiLe;fontSource=https%3A%2F%2Ffonts.googleapis.com%2Fcss%3Ffamily%3DZCOOL%2BKuaiLe;fillColor=#d5e8d4;strokeColor=#82b366;fontStyle=0;fontColor=#97D077;" parent="3fp7J-1nxwor3pY37bPl-29" vertex="1">
          <mxGeometry x="22" y="16" width="230" height="60" as="geometry" />
        </mxCell>
        <mxCell id="8RS-Y_VaHB5oV3ZXM7iS-2" value="" style="rounded=1;whiteSpace=wrap;html=1;sketch=1;curveFitting=1;jiggle=2;fontSize=16;fontFamily=ZCOOL KuaiLe;fontSource=https%3A%2F%2Ffonts.googleapis.com%2Fcss%3Ffamily%3DZCOOL%2BKuaiLe;fontStyle=0;fillColor=none;strokeColor=#82b366;" parent="3fp7J-1nxwor3pY37bPl-29" vertex="1">
          <mxGeometry x="22" y="110" width="230" height="330" as="geometry" />
        </mxCell>
        <mxCell id="8RS-Y_VaHB5oV3ZXM7iS-4" value="堆、栈空间" style="rounded=1;whiteSpace=wrap;html=1;sketch=1;curveFitting=1;jiggle=2;fontSize=16;fontFamily=ZCOOL KuaiLe;fontSource=https%3A%2F%2Ffonts.googleapis.com%2Fcss%3Ffamily%3DZCOOL%2BKuaiLe;fillColor=#ffe6cc;strokeColor=#d79b00;fontStyle=0" parent="3fp7J-1nxwor3pY37bPl-29" vertex="1">
          <mxGeometry x="59.5" y="130" width="155" height="40" as="geometry" />
        </mxCell>
        <mxCell id="8RS-Y_VaHB5oV3ZXM7iS-5" value="全局上下文" style="rounded=1;whiteSpace=wrap;html=1;sketch=1;curveFitting=1;jiggle=2;fontSize=16;fontFamily=ZCOOL KuaiLe;fontSource=https%3A%2F%2Ffonts.googleapis.com%2Fcss%3Ffamily%3DZCOOL%2BKuaiLe;fillColor=#ffe6cc;strokeColor=#d79b00;fontStyle=0" parent="3fp7J-1nxwor3pY37bPl-29" vertex="1">
          <mxGeometry x="59.5" y="190" width="155" height="40" as="geometry" />
        </mxCell>
        <mxCell id="8RS-Y_VaHB5oV3ZXM7iS-6" value="全局作用域" style="rounded=1;whiteSpace=wrap;html=1;sketch=1;curveFitting=1;jiggle=2;fontSize=16;fontFamily=ZCOOL KuaiLe;fontSource=https%3A%2F%2Ffonts.googleapis.com%2Fcss%3Ffamily%3DZCOOL%2BKuaiLe;fillColor=#ffe6cc;strokeColor=#d79b00;fontStyle=0" parent="3fp7J-1nxwor3pY37bPl-29" vertex="1">
          <mxGeometry x="59.5" y="250" width="155" height="40" as="geometry" />
        </mxCell>
        <mxCell id="8RS-Y_VaHB5oV3ZXM7iS-7" value="事件循环系统" style="rounded=1;whiteSpace=wrap;html=1;sketch=1;curveFitting=1;jiggle=2;fontSize=16;fontFamily=ZCOOL KuaiLe;fontSource=https%3A%2F%2Ffonts.googleapis.com%2Fcss%3Ffamily%3DZCOOL%2BKuaiLe;fillColor=#ffe6cc;strokeColor=#d79b00;fontStyle=0" parent="3fp7J-1nxwor3pY37bPl-29" vertex="1">
          <mxGeometry x="59.5" y="310" width="155" height="40" as="geometry" />
        </mxCell>
        <mxCell id="8RS-Y_VaHB5oV3ZXM7iS-8" value="其他..." style="rounded=1;whiteSpace=wrap;html=1;sketch=1;curveFitting=1;jiggle=2;fontSize=16;fontFamily=ZCOOL KuaiLe;fontSource=https%3A%2F%2Ffonts.googleapis.com%2Fcss%3Ffamily%3DZCOOL%2BKuaiLe;fillColor=#ffe6cc;strokeColor=#d79b00;fontStyle=0" parent="3fp7J-1nxwor3pY37bPl-29" vertex="1">
          <mxGeometry x="59.5" y="375" width="155" height="40" as="geometry" />
        </mxCell>
        <mxCell id="8RS-Y_VaHB5oV3ZXM7iS-10" style="edgeStyle=orthogonalEdgeStyle;rounded=0;orthogonalLoop=1;jettySize=auto;html=1;fontFamily=ZCOOL KuaiLe;fontSource=https%3A%2F%2Ffonts.googleapis.com%2Fcss%3Ffamily%3DZCOOL%2BKuaiLe;fontSize=16;fontColor=default;fontStyle=0;sketch=1;curveFitting=1;jiggle=2;" parent="3fp7J-1nxwor3pY37bPl-29" source="8RS-Y_VaHB5oV3ZXM7iS-9" edge="1">
          <mxGeometry relative="1" as="geometry">
            <mxPoint x="392" y="123" as="targetPoint" />
          </mxGeometry>
        </mxCell>
        <mxCell id="8RS-Y_VaHB5oV3ZXM7iS-9" value="function foo(){&lt;br&gt;&lt;span style=&quot;white-space: pre;&quot;&gt;&#x9;&lt;/span&gt;...&lt;div&gt;}&lt;/div&gt;" style="shape=parallelogram;perimeter=parallelogramPerimeter;whiteSpace=wrap;html=1;fixedSize=1;rounded=1;sketch=1;jiggle=2;curveFitting=1;strokeColor=#b85450;align=left;verticalAlign=middle;fontFamily=ZCOOL KuaiLe;fontSource=https%3A%2F%2Ffonts.googleapis.com%2Fcss%3Ffamily%3DZCOOL%2BKuaiLe;fontSize=16;fontStyle=0;fillColor=#f8cecc;spacingLeft=19;" parent="3fp7J-1nxwor3pY37bPl-29" vertex="1">
          <mxGeometry x="312" y="23" width="160" height="60" as="geometry" />
        </mxCell>
        <mxCell id="8RS-Y_VaHB5oV3ZXM7iS-19" style="edgeStyle=orthogonalEdgeStyle;shape=connector;rounded=0;sketch=1;jiggle=2;curveFitting=1;orthogonalLoop=1;jettySize=auto;html=1;entryX=0;entryY=0.5;entryDx=0;entryDy=0;strokeColor=default;align=center;verticalAlign=middle;fontFamily=ZCOOL KuaiLe;fontSource=https%3A%2F%2Ffonts.googleapis.com%2Fcss%3Ffamily%3DZCOOL%2BKuaiLe;fontSize=16;fontColor=default;fontStyle=0;labelBackgroundColor=default;endArrow=classic;" parent="3fp7J-1nxwor3pY37bPl-29" source="8RS-Y_VaHB5oV3ZXM7iS-11" target="8RS-Y_VaHB5oV3ZXM7iS-18" edge="1">
          <mxGeometry relative="1" as="geometry" />
        </mxCell>
        <mxCell id="8RS-Y_VaHB5oV3ZXM7iS-11" value="" style="rounded=1;whiteSpace=wrap;html=1;sketch=1;jiggle=2;curveFitting=1;strokeColor=#82b366;align=center;verticalAlign=middle;fontFamily=ZCOOL KuaiLe;fontSource=https%3A%2F%2Ffonts.googleapis.com%2Fcss%3Ffamily%3DZCOOL%2BKuaiLe;fontSize=16;fontColor=default;fontStyle=0;labelBackgroundColor=default;fillColor=none;" parent="3fp7J-1nxwor3pY37bPl-29" vertex="1">
          <mxGeometry x="292" y="127" width="200" height="126" as="geometry" />
        </mxCell>
        <mxCell id="8RS-Y_VaHB5oV3ZXM7iS-12" value="解析器" style="text;html=1;align=center;verticalAlign=middle;whiteSpace=wrap;rounded=0;fontFamily=ZCOOL KuaiLe;fontSource=https%3A%2F%2Ffonts.googleapis.com%2Fcss%3Ffamily%3DZCOOL%2BKuaiLe;fontSize=16;fontColor=default;fontStyle=0;labelBackgroundColor=default;" parent="3fp7J-1nxwor3pY37bPl-29" vertex="1">
          <mxGeometry x="292" y="183" width="60" height="40" as="geometry" />
        </mxCell>
        <mxCell id="8RS-Y_VaHB5oV3ZXM7iS-13" value="AST" style="text;html=1;align=center;verticalAlign=middle;whiteSpace=wrap;rounded=0;fontFamily=ZCOOL KuaiLe;fontSource=https%3A%2F%2Ffonts.googleapis.com%2Fcss%3Ffamily%3DZCOOL%2BKuaiLe;fontSize=16;fontColor=default;fontStyle=0;labelBackgroundColor=default;" parent="3fp7J-1nxwor3pY37bPl-29" vertex="1">
          <mxGeometry x="422" y="173" width="60" height="30" as="geometry" />
        </mxCell>
        <mxCell id="8RS-Y_VaHB5oV3ZXM7iS-14" value="作用域" style="text;html=1;align=center;verticalAlign=middle;whiteSpace=wrap;rounded=0;fontFamily=ZCOOL KuaiLe;fontSource=https%3A%2F%2Ffonts.googleapis.com%2Fcss%3Ffamily%3DZCOOL%2BKuaiLe;fontSize=16;fontColor=default;fontStyle=0;labelBackgroundColor=default;" parent="3fp7J-1nxwor3pY37bPl-29" vertex="1">
          <mxGeometry x="422" y="213" width="60" height="30" as="geometry" />
        </mxCell>
        <mxCell id="8RS-Y_VaHB5oV3ZXM7iS-16" style="edgeStyle=orthogonalEdgeStyle;shape=connector;rounded=0;sketch=1;jiggle=2;curveFitting=1;orthogonalLoop=1;jettySize=auto;html=1;entryX=0;entryY=0.75;entryDx=0;entryDy=0;strokeColor=default;align=center;verticalAlign=middle;fontFamily=ZCOOL KuaiLe;fontSource=https%3A%2F%2Ffonts.googleapis.com%2Fcss%3Ffamily%3DZCOOL%2BKuaiLe;fontSize=16;fontColor=default;fontStyle=0;labelBackgroundColor=default;endArrow=classic;" parent="3fp7J-1nxwor3pY37bPl-29" source="8RS-Y_VaHB5oV3ZXM7iS-15" target="8RS-Y_VaHB5oV3ZXM7iS-13" edge="1">
          <mxGeometry relative="1" as="geometry" />
        </mxCell>
        <mxCell id="8RS-Y_VaHB5oV3ZXM7iS-17" style="edgeStyle=orthogonalEdgeStyle;shape=connector;rounded=0;sketch=1;jiggle=2;curveFitting=1;orthogonalLoop=1;jettySize=auto;html=1;entryX=0;entryY=0.75;entryDx=0;entryDy=0;strokeColor=default;align=center;verticalAlign=middle;fontFamily=ZCOOL KuaiLe;fontSource=https%3A%2F%2Ffonts.googleapis.com%2Fcss%3Ffamily%3DZCOOL%2BKuaiLe;fontSize=16;fontColor=default;fontStyle=0;labelBackgroundColor=default;endArrow=classic;" parent="3fp7J-1nxwor3pY37bPl-29" source="8RS-Y_VaHB5oV3ZXM7iS-15" target="8RS-Y_VaHB5oV3ZXM7iS-14" edge="1">
          <mxGeometry relative="1" as="geometry" />
        </mxCell>
        <mxCell id="8RS-Y_VaHB5oV3ZXM7iS-15" value="解析" style="text;html=1;align=center;verticalAlign=middle;whiteSpace=wrap;rounded=0;fontFamily=ZCOOL KuaiLe;fontSource=https%3A%2F%2Ffonts.googleapis.com%2Fcss%3Ffamily%3DZCOOL%2BKuaiLe;fontSize=16;fontColor=default;fontStyle=0;labelBackgroundColor=default;" parent="3fp7J-1nxwor3pY37bPl-29" vertex="1">
          <mxGeometry x="362" y="133" width="60" height="40" as="geometry" />
        </mxCell>
        <mxCell id="8RS-Y_VaHB5oV3ZXM7iS-21" value="" style="edgeStyle=orthogonalEdgeStyle;shape=connector;rounded=0;sketch=1;jiggle=2;curveFitting=1;orthogonalLoop=1;jettySize=auto;html=1;strokeColor=default;align=center;verticalAlign=middle;fontFamily=ZCOOL KuaiLe;fontSource=https%3A%2F%2Ffonts.googleapis.com%2Fcss%3Ffamily%3DZCOOL%2BKuaiLe;fontSize=16;fontColor=default;fontStyle=0;labelBackgroundColor=default;endArrow=classic;" parent="3fp7J-1nxwor3pY37bPl-29" source="8RS-Y_VaHB5oV3ZXM7iS-18" target="8RS-Y_VaHB5oV3ZXM7iS-20" edge="1">
          <mxGeometry relative="1" as="geometry" />
        </mxCell>
        <mxCell id="8RS-Y_VaHB5oV3ZXM7iS-18" value="可执行代码" style="rounded=1;whiteSpace=wrap;html=1;sketch=1;jiggle=2;curveFitting=1;strokeColor=#82b366;align=center;verticalAlign=middle;fontFamily=ZCOOL KuaiLe;fontSource=https%3A%2F%2Ffonts.googleapis.com%2Fcss%3Ffamily%3DZCOOL%2BKuaiLe;fontSize=16;fontColor=default;fontStyle=0;labelBackgroundColor=default;fillColor=none;" parent="3fp7J-1nxwor3pY37bPl-29" vertex="1">
          <mxGeometry x="572" y="167" width="120" height="46" as="geometry" />
        </mxCell>
        <mxCell id="8RS-Y_VaHB5oV3ZXM7iS-23" value="" style="edgeStyle=orthogonalEdgeStyle;shape=connector;rounded=0;sketch=1;jiggle=2;curveFitting=1;orthogonalLoop=1;jettySize=auto;html=1;strokeColor=default;align=center;verticalAlign=middle;fontFamily=ZCOOL KuaiLe;fontSource=https%3A%2F%2Ffonts.googleapis.com%2Fcss%3Ffamily%3DZCOOL%2BKuaiLe;fontSize=16;fontColor=default;fontStyle=0;labelBackgroundColor=default;endArrow=classic;" parent="3fp7J-1nxwor3pY37bPl-29" source="8RS-Y_VaHB5oV3ZXM7iS-20" target="8RS-Y_VaHB5oV3ZXM7iS-22" edge="1">
          <mxGeometry relative="1" as="geometry" />
        </mxCell>
        <mxCell id="8RS-Y_VaHB5oV3ZXM7iS-38" style="shape=connector;rounded=0;orthogonalLoop=1;jettySize=auto;html=1;entryX=1;entryY=0;entryDx=0;entryDy=0;strokeColor=#FF99CC;align=center;verticalAlign=middle;fontFamily=ZCOOL KuaiLe;fontSource=https%3A%2F%2Ffonts.googleapis.com%2Fcss%3Ffamily%3DZCOOL%2BKuaiLe;fontSize=16;fontColor=default;fontStyle=0;labelBackgroundColor=default;endArrow=classic;dashed=1;dashPattern=8 8;sketch=1;curveFitting=1;jiggle=2;" parent="3fp7J-1nxwor3pY37bPl-29" source="8RS-Y_VaHB5oV3ZXM7iS-20" target="8RS-Y_VaHB5oV3ZXM7iS-31" edge="1">
          <mxGeometry relative="1" as="geometry" />
        </mxCell>
        <mxCell id="8RS-Y_VaHB5oV3ZXM7iS-20" value="&#xa;&lt;span style=&quot;color: rgb(0, 0, 0); font-family: &amp;quot;ZCOOL KuaiLe&amp;quot;; font-size: 16px; font-style: normal; font-variant-ligatures: normal; font-variant-caps: normal; font-weight: 400; letter-spacing: normal; orphans: 2; text-align: center; text-indent: 0px; text-transform: none; widows: 2; word-spacing: 0px; -webkit-text-stroke-width: 0px; white-space: normal; background-color: rgb(255, 255, 255); text-decoration-thickness: initial; text-decoration-style: initial; text-decoration-color: initial; display: inline !important; float: none;&quot;&gt;解释器&lt;/span&gt;&#xa;&#xa;" style="ellipse;whiteSpace=wrap;html=1;fontSize=16;fontFamily=ZCOOL KuaiLe;fillColor=none;strokeColor=#82b366;rounded=1;sketch=1;jiggle=2;curveFitting=1;fontSource=https%3A%2F%2Ffonts.googleapis.com%2Fcss%3Ffamily%3DZCOOL%2BKuaiLe;fontStyle=0;labelBackgroundColor=default;" parent="3fp7J-1nxwor3pY37bPl-29" vertex="1">
          <mxGeometry x="756" y="133.5" width="110" height="113" as="geometry" />
        </mxCell>
        <mxCell id="8RS-Y_VaHB5oV3ZXM7iS-22" value="执行结果" style="shape=parallelogram;perimeter=parallelogramPerimeter;whiteSpace=wrap;html=1;fixedSize=1;fontSize=16;fontFamily=ZCOOL KuaiLe;fillColor=#f8cecc;strokeColor=#b85450;rounded=1;sketch=1;jiggle=2;curveFitting=1;fontSource=https%3A%2F%2Ffonts.googleapis.com%2Fcss%3Ffamily%3DZCOOL%2BKuaiLe;fontStyle=0;labelBackgroundColor=default;" parent="3fp7J-1nxwor3pY37bPl-29" vertex="1">
          <mxGeometry x="942" y="160" width="120" height="60" as="geometry" />
        </mxCell>
        <mxCell id="8RS-Y_VaHB5oV3ZXM7iS-25" style="edgeStyle=orthogonalEdgeStyle;shape=connector;rounded=0;sketch=1;jiggle=2;curveFitting=1;orthogonalLoop=1;jettySize=auto;html=1;strokeColor=default;align=center;verticalAlign=middle;fontFamily=ZCOOL KuaiLe;fontSource=https%3A%2F%2Ffonts.googleapis.com%2Fcss%3Ffamily%3DZCOOL%2BKuaiLe;fontSize=16;fontColor=default;fontStyle=0;labelBackgroundColor=default;endArrow=classic;entryX=0.5;entryY=0;entryDx=0;entryDy=0;" parent="3fp7J-1nxwor3pY37bPl-29" source="8RS-Y_VaHB5oV3ZXM7iS-24" target="8RS-Y_VaHB5oV3ZXM7iS-28" edge="1">
          <mxGeometry relative="1" as="geometry">
            <mxPoint x="811.0000000000005" y="323" as="targetPoint" />
          </mxGeometry>
        </mxCell>
        <mxCell id="8RS-Y_VaHB5oV3ZXM7iS-26" value="热点代码检测" style="edgeLabel;html=1;align=center;verticalAlign=middle;resizable=0;points=[];rounded=1;sketch=1;jiggle=2;curveFitting=1;strokeColor=#82b366;fontFamily=ZCOOL KuaiLe;fontSource=https%3A%2F%2Ffonts.googleapis.com%2Fcss%3Ffamily%3DZCOOL%2BKuaiLe;fontSize=16;fontColor=default;fontStyle=0;labelBackgroundColor=default;fillColor=#d5e8d4;" parent="8RS-Y_VaHB5oV3ZXM7iS-25" vertex="1" connectable="0">
          <mxGeometry x="-0.1787" y="-1" relative="1" as="geometry">
            <mxPoint as="offset" />
          </mxGeometry>
        </mxCell>
        <mxCell id="8RS-Y_VaHB5oV3ZXM7iS-24" value="" style="shape=image;html=1;verticalAlign=top;verticalLabelPosition=bottom;labelBackgroundColor=#ffffff;imageAspect=0;aspect=fixed;image=https://cdn4.iconfinder.com/data/icons/social-media-and-logos-12/32/Logo_reddit_robot-128.png;rounded=1;strokeColor=#82b366;align=center;fontFamily=ZCOOL KuaiLe;fontSource=https%3A%2F%2Ffonts.googleapis.com%2Fcss%3Ffamily%3DZCOOL%2BKuaiLe;fontSize=16;fontColor=#66B2FF;fontStyle=0;fillColor=#d5e8d4;sketch=1;curveFitting=1;jiggle=2;" parent="3fp7J-1nxwor3pY37bPl-29" vertex="1">
          <mxGeometry x="792" y="199" width="38" height="38" as="geometry" />
        </mxCell>
        <mxCell id="8RS-Y_VaHB5oV3ZXM7iS-29" style="edgeStyle=orthogonalEdgeStyle;shape=connector;rounded=0;sketch=1;jiggle=2;curveFitting=1;orthogonalLoop=1;jettySize=auto;html=1;strokeColor=default;align=center;verticalAlign=middle;fontFamily=ZCOOL KuaiLe;fontSource=https%3A%2F%2Ffonts.googleapis.com%2Fcss%3Ffamily%3DZCOOL%2BKuaiLe;fontSize=16;fontColor=default;fontStyle=0;labelBackgroundColor=default;endArrow=classic;" parent="3fp7J-1nxwor3pY37bPl-29" source="8RS-Y_VaHB5oV3ZXM7iS-28" target="8RS-Y_VaHB5oV3ZXM7iS-31" edge="1">
          <mxGeometry relative="1" as="geometry">
            <mxPoint x="702" y="363" as="targetPoint" />
          </mxGeometry>
        </mxCell>
        <mxCell id="8RS-Y_VaHB5oV3ZXM7iS-28" value="热点代码" style="shape=parallelogram;perimeter=parallelogramPerimeter;whiteSpace=wrap;html=1;fixedSize=1;rounded=1;sketch=1;jiggle=2;curveFitting=1;strokeColor=#82b366;align=center;verticalAlign=middle;fontFamily=ZCOOL KuaiLe;fontSource=https%3A%2F%2Ffonts.googleapis.com%2Fcss%3Ffamily%3DZCOOL%2BKuaiLe;fontSize=16;fontColor=default;fontStyle=0;labelBackgroundColor=default;fillColor=#d5e8d4;" parent="3fp7J-1nxwor3pY37bPl-29" vertex="1">
          <mxGeometry x="751" y="317" width="120" height="60" as="geometry" />
        </mxCell>
        <mxCell id="8RS-Y_VaHB5oV3ZXM7iS-30" value="解释器" style="text;html=1;align=center;verticalAlign=middle;whiteSpace=wrap;rounded=0;fontFamily=ZCOOL KuaiLe;fontSource=https%3A%2F%2Ffonts.googleapis.com%2Fcss%3Ffamily%3DZCOOL%2BKuaiLe;fontSize=16;fontColor=default;fontStyle=0;labelBackgroundColor=default;" parent="3fp7J-1nxwor3pY37bPl-29" vertex="1">
          <mxGeometry x="781" y="167" width="60" height="30" as="geometry" />
        </mxCell>
        <mxCell id="8RS-Y_VaHB5oV3ZXM7iS-33" style="edgeStyle=orthogonalEdgeStyle;shape=connector;rounded=0;sketch=1;jiggle=2;curveFitting=1;orthogonalLoop=1;jettySize=auto;html=1;strokeColor=default;align=center;verticalAlign=middle;fontFamily=ZCOOL KuaiLe;fontSource=https%3A%2F%2Ffonts.googleapis.com%2Fcss%3Ffamily%3DZCOOL%2BKuaiLe;fontSize=16;fontColor=default;fontStyle=0;labelBackgroundColor=default;endArrow=classic;" parent="3fp7J-1nxwor3pY37bPl-29" source="8RS-Y_VaHB5oV3ZXM7iS-31" target="8RS-Y_VaHB5oV3ZXM7iS-32" edge="1">
          <mxGeometry relative="1" as="geometry" />
        </mxCell>
        <mxCell id="8RS-Y_VaHB5oV3ZXM7iS-31" value="编译器" style="ellipse;whiteSpace=wrap;html=1;fontSize=16;fontFamily=ZCOOL KuaiLe;fillColor=none;strokeColor=#82b366;rounded=1;sketch=1;jiggle=2;curveFitting=1;fontSource=https%3A%2F%2Ffonts.googleapis.com%2Fcss%3Ffamily%3DZCOOL%2BKuaiLe;fontStyle=0;labelBackgroundColor=default;" parent="3fp7J-1nxwor3pY37bPl-29" vertex="1">
          <mxGeometry x="592" y="315" width="62.3" height="64" as="geometry" />
        </mxCell>
        <mxCell id="8RS-Y_VaHB5oV3ZXM7iS-34" style="edgeStyle=orthogonalEdgeStyle;shape=connector;rounded=0;sketch=1;jiggle=2;curveFitting=1;orthogonalLoop=1;jettySize=auto;html=1;entryX=0.5;entryY=1;entryDx=0;entryDy=0;strokeColor=default;align=center;verticalAlign=middle;fontFamily=ZCOOL KuaiLe;fontSource=https%3A%2F%2Ffonts.googleapis.com%2Fcss%3Ffamily%3DZCOOL%2BKuaiLe;fontSize=16;fontColor=default;fontStyle=0;labelBackgroundColor=default;endArrow=classic;exitX=0.351;exitY=1.036;exitDx=0;exitDy=0;exitPerimeter=0;" parent="3fp7J-1nxwor3pY37bPl-29" source="8RS-Y_VaHB5oV3ZXM7iS-32" target="8RS-Y_VaHB5oV3ZXM7iS-22" edge="1">
          <mxGeometry relative="1" as="geometry">
            <Array as="points">
              <mxPoint x="424" y="413" />
              <mxPoint x="1002" y="413" />
            </Array>
          </mxGeometry>
        </mxCell>
        <mxCell id="8RS-Y_VaHB5oV3ZXM7iS-32" value="机器码&lt;div&gt;0101011110...&lt;/div&gt;" style="shape=parallelogram;perimeter=parallelogramPerimeter;whiteSpace=wrap;html=1;fixedSize=1;rounded=1;sketch=1;jiggle=2;curveFitting=1;strokeColor=#82b366;align=center;verticalAlign=middle;fontFamily=ZCOOL KuaiLe;fontSource=https%3A%2F%2Ffonts.googleapis.com%2Fcss%3Ffamily%3DZCOOL%2BKuaiLe;fontSize=16;fontColor=default;fontStyle=0;labelBackgroundColor=default;fillColor=#d5e8d4;" parent="3fp7J-1nxwor3pY37bPl-29" vertex="1">
          <mxGeometry x="382" y="317" width="120" height="60" as="geometry" />
        </mxCell>
        <mxCell id="8RS-Y_VaHB5oV3ZXM7iS-39" style="shape=connector;rounded=0;orthogonalLoop=1;jettySize=auto;html=1;entryX=0.036;entryY=0.721;entryDx=0;entryDy=0;entryPerimeter=0;strokeColor=#FF99FF;align=center;verticalAlign=middle;fontFamily=ZCOOL KuaiLe;fontSource=https%3A%2F%2Ffonts.googleapis.com%2Fcss%3Ffamily%3DZCOOL%2BKuaiLe;fontSize=16;fontColor=default;fontStyle=0;labelBackgroundColor=default;endArrow=classic;dashed=1;dashPattern=8 8;sketch=1;curveFitting=1;jiggle=2;" parent="3fp7J-1nxwor3pY37bPl-29" target="8RS-Y_VaHB5oV3ZXM7iS-20" edge="1">
          <mxGeometry relative="1" as="geometry">
            <mxPoint x="632" y="313" as="sourcePoint" />
          </mxGeometry>
        </mxCell>
        <mxCell id="8RS-Y_VaHB5oV3ZXM7iS-40" value="反优化" style="text;html=1;align=center;verticalAlign=middle;whiteSpace=wrap;rounded=0;fontFamily=ZCOOL KuaiLe;fontSource=https%3A%2F%2Ffonts.googleapis.com%2Fcss%3Ffamily%3DZCOOL%2BKuaiLe;fontSize=16;fontColor=#FF66FF;fontStyle=0;labelBackgroundColor=default;" parent="3fp7J-1nxwor3pY37bPl-29" vertex="1">
          <mxGeometry x="632" y="246.5" width="60" height="30" as="geometry" />
        </mxCell>
        <mxCell id="3fp7J-1nxwor3pY37bPl-36" value="" style="group" parent="1" vertex="1" connectable="0">
          <mxGeometry x="64" y="578" width="175" height="285" as="geometry" />
        </mxCell>
        <mxCell id="3fp7J-1nxwor3pY37bPl-30" value="" style="rounded=1;whiteSpace=wrap;html=1;sketch=1;curveFitting=1;jiggle=2;fillColor=none;strokeColor=#82b366;" parent="3fp7J-1nxwor3pY37bPl-36" vertex="1">
          <mxGeometry width="175" height="285" as="geometry" />
        </mxCell>
        <mxCell id="3fp7J-1nxwor3pY37bPl-32" value="函数对象" style="text;html=1;align=center;verticalAlign=middle;whiteSpace=wrap;rounded=0;fontFamily=ZCOOL KuaiLe;fontSize=20;fontColor=default;fontSource=https%3A%2F%2Ffonts.googleapis.com%2Fcss%3Ffamily%3DZCOOL%2BKuaiLe;" parent="3fp7J-1nxwor3pY37bPl-36" vertex="1">
          <mxGeometry x="36" y="18" width="91" height="30" as="geometry" />
        </mxCell>
        <mxCell id="3fp7J-1nxwor3pY37bPl-33" value="name" style="rounded=1;whiteSpace=wrap;html=1;sketch=1;jiggle=2;curveFitting=1;strokeColor=#d79b00;align=center;verticalAlign=middle;fontFamily=ZCOOL KuaiLe;fontSize=16;fillColor=#ffe6cc;fontSource=https%3A%2F%2Ffonts.googleapis.com%2Fcss%3Ffamily%3DZCOOL%2BKuaiLe;" parent="3fp7J-1nxwor3pY37bPl-36" vertex="1">
          <mxGeometry x="28" y="78" width="120" height="40" as="geometry" />
        </mxCell>
        <mxCell id="3fp7J-1nxwor3pY37bPl-34" value="code" style="rounded=1;whiteSpace=wrap;html=1;sketch=1;jiggle=2;curveFitting=1;strokeColor=#d79b00;align=center;verticalAlign=middle;fontFamily=ZCOOL KuaiLe;fontSize=16;fillColor=#ffe6cc;fontSource=https%3A%2F%2Ffonts.googleapis.com%2Fcss%3Ffamily%3DZCOOL%2BKuaiLe;" parent="3fp7J-1nxwor3pY37bPl-36" vertex="1">
          <mxGeometry x="28" y="138" width="120" height="40" as="geometry" />
        </mxCell>
        <mxCell id="3fp7J-1nxwor3pY37bPl-35" value="其他..." style="rounded=1;whiteSpace=wrap;html=1;sketch=1;jiggle=2;curveFitting=1;strokeColor=#82b366;align=center;verticalAlign=middle;fontFamily=ZCOOL KuaiLe;fontSize=16;fillColor=#d5e8d4;fontSource=https%3A%2F%2Ffonts.googleapis.com%2Fcss%3Ffamily%3DZCOOL%2BKuaiLe;" parent="3fp7J-1nxwor3pY37bPl-36" vertex="1">
          <mxGeometry x="30" y="204" width="120" height="40" as="geometry" />
        </mxCell>
        <mxCell id="3fp7J-1nxwor3pY37bPl-105" value="" style="group" parent="1" vertex="1" connectable="0">
          <mxGeometry x="493" y="573" width="818" height="518" as="geometry" />
        </mxCell>
        <mxCell id="3fp7J-1nxwor3pY37bPl-104" value="" style="rounded=1;whiteSpace=wrap;html=1;sketch=1;jiggle=2;curveFitting=1;align=center;verticalAlign=middle;fontFamily=ZCOOL KuaiLe;fontSource=https%3A%2F%2Ffonts.googleapis.com%2Fcss%3Ffamily%3DZCOOL%2BKuaiLe;fontSize=16;labelBackgroundColor=default;dashed=1;strokeColor=#3399FF;" parent="3fp7J-1nxwor3pY37bPl-105" vertex="1">
          <mxGeometry x="324" y="193" width="494" height="325" as="geometry" />
        </mxCell>
        <mxCell id="3fp7J-1nxwor3pY37bPl-51" value="" style="group" parent="3fp7J-1nxwor3pY37bPl-105" vertex="1" connectable="0">
          <mxGeometry y="102" width="239" height="383" as="geometry" />
        </mxCell>
        <mxCell id="3fp7J-1nxwor3pY37bPl-37" value="" style="rounded=1;whiteSpace=wrap;html=1;sketch=1;jiggle=2;curveFitting=1;strokeColor=#82b366;align=center;verticalAlign=middle;fontFamily=ZCOOL KuaiLe;fontSource=https%3A%2F%2Ffonts.googleapis.com%2Fcss%3Ffamily%3DZCOOL%2BKuaiLe;fontSize=16;fontColor=default;fillColor=#d5e8d4;" parent="3fp7J-1nxwor3pY37bPl-51" vertex="1">
          <mxGeometry width="239" height="382.99999999999994" as="geometry" />
        </mxCell>
        <mxCell id="3fp7J-1nxwor3pY37bPl-38" value="obj" style="text;html=1;align=center;verticalAlign=middle;whiteSpace=wrap;rounded=0;fontFamily=ZCOOL KuaiLe;fontSource=https%3A%2F%2Ffonts.googleapis.com%2Fcss%3Ffamily%3DZCOOL%2BKuaiLe;fontSize=18;fontColor=default;" parent="3fp7J-1nxwor3pY37bPl-51" vertex="1">
          <mxGeometry x="84.17980295566502" y="4.863492063492063" width="70.64039408866995" height="36.476190476190474" as="geometry" />
        </mxCell>
        <mxCell id="3fp7J-1nxwor3pY37bPl-45" value="elements" style="rounded=1;whiteSpace=wrap;html=1;sketch=1;jiggle=2;curveFitting=1;strokeColor=#d79b00;align=center;verticalAlign=middle;fontFamily=ZCOOL KuaiLe;fontSize=16;fillColor=#ffe6cc;fontSource=https%3A%2F%2Ffonts.googleapis.com%2Fcss%3Ffamily%3DZCOOL%2BKuaiLe;" parent="3fp7J-1nxwor3pY37bPl-51" vertex="1">
          <mxGeometry x="51.214285714285715" y="48.63492063492063" width="141.2807881773399" height="48.63492063492063" as="geometry" />
        </mxCell>
        <mxCell id="3fp7J-1nxwor3pY37bPl-46" value="properties" style="rounded=1;whiteSpace=wrap;html=1;sketch=1;jiggle=2;curveFitting=1;strokeColor=#d79b00;align=center;verticalAlign=middle;fontFamily=ZCOOL KuaiLe;fontSize=16;fillColor=#ffe6cc;fontSource=https%3A%2F%2Ffonts.googleapis.com%2Fcss%3Ffamily%3DZCOOL%2BKuaiLe;" parent="3fp7J-1nxwor3pY37bPl-51" vertex="1">
          <mxGeometry x="51.214285714285715" y="110.64444444444443" width="141.2807881773399" height="48.63492063492063" as="geometry" />
        </mxCell>
        <mxCell id="3fp7J-1nxwor3pY37bPl-47" value="" style="rounded=1;whiteSpace=wrap;html=1;sketch=1;jiggle=2;curveFitting=1;strokeColor=#d79b00;align=center;verticalAlign=middle;fontFamily=ZCOOL KuaiLe;fontSize=16;fillColor=#ffe6cc;fontSource=https%3A%2F%2Ffonts.googleapis.com%2Fcss%3Ffamily%3DZCOOL%2BKuaiLe;" parent="3fp7J-1nxwor3pY37bPl-51" vertex="1">
          <mxGeometry x="22.36945812807882" y="182.38095238095238" width="198.9704433497537" height="178.73333333333332" as="geometry" />
        </mxCell>
        <mxCell id="3fp7J-1nxwor3pY37bPl-48" value="对象内属性区&lt;div&gt;（最多10个）&lt;/div&gt;" style="text;html=1;align=center;verticalAlign=middle;whiteSpace=wrap;rounded=0;fontFamily=ZCOOL KuaiLe;fontSource=https%3A%2F%2Ffonts.googleapis.com%2Fcss%3Ffamily%3DZCOOL%2BKuaiLe;fontSize=14;fontColor=default;" parent="3fp7J-1nxwor3pY37bPl-51" vertex="1">
          <mxGeometry x="36.49753694581281" y="189.67619047619047" width="169.5369458128079" height="36.476190476190474" as="geometry" />
        </mxCell>
        <mxCell id="3fp7J-1nxwor3pY37bPl-49" value="property1" style="rounded=1;whiteSpace=wrap;html=1;sketch=1;jiggle=2;curveFitting=1;strokeColor=#d79b00;align=center;verticalAlign=middle;fontFamily=ZCOOL KuaiLe;fontSize=14;fillColor=#ffe6cc;fontSource=https%3A%2F%2Ffonts.googleapis.com%2Fcss%3Ffamily%3DZCOOL%2BKuaiLe;" parent="3fp7J-1nxwor3pY37bPl-51" vertex="1">
          <mxGeometry x="51.214285714285715" y="235.87936507936507" width="141.2807881773399" height="48.63492063492063" as="geometry" />
        </mxCell>
        <mxCell id="3fp7J-1nxwor3pY37bPl-50" value="其他..." style="rounded=1;whiteSpace=wrap;html=1;sketch=1;jiggle=2;curveFitting=1;strokeColor=#d79b00;align=center;verticalAlign=middle;fontFamily=ZCOOL KuaiLe;fontSize=14;fillColor=#ffe6cc;fontSource=https%3A%2F%2Ffonts.googleapis.com%2Fcss%3Ffamily%3DZCOOL%2BKuaiLe;" parent="3fp7J-1nxwor3pY37bPl-51" vertex="1">
          <mxGeometry x="51.214285714285715" y="294.2412698412698" width="141.2807881773399" height="48.63492063492063" as="geometry" />
        </mxCell>
        <mxCell id="3fp7J-1nxwor3pY37bPl-70" value="" style="group" parent="3fp7J-1nxwor3pY37bPl-105" vertex="1" connectable="0">
          <mxGeometry x="367" width="213" height="176.25" as="geometry" />
        </mxCell>
        <mxCell id="3fp7J-1nxwor3pY37bPl-53" value="" style="shape=table;startSize=0;container=1;collapsible=0;childLayout=tableLayout;rounded=1;sketch=1;jiggle=2;curveFitting=1;strokeColor=#82b366;align=center;verticalAlign=middle;fontFamily=ZCOOL KuaiLe;fontSource=https%3A%2F%2Ffonts.googleapis.com%2Fcss%3Ffamily%3DZCOOL%2BKuaiLe;fontSize=16;fontColor=default;fillColor=#d5e8d4;" parent="3fp7J-1nxwor3pY37bPl-70" vertex="1">
          <mxGeometry x="18.5" y="30" width="131" height="146.25" as="geometry" />
        </mxCell>
        <mxCell id="3fp7J-1nxwor3pY37bPl-54" value="" style="shape=tableRow;horizontal=0;startSize=0;swimlaneHead=0;swimlaneBody=0;strokeColor=inherit;top=0;left=0;bottom=0;right=0;collapsible=0;dropTarget=0;fillColor=none;points=[[0,0.5],[1,0.5]];portConstraint=eastwest;rounded=1;sketch=1;jiggle=2;curveFitting=1;align=center;verticalAlign=middle;fontFamily=ZCOOL KuaiLe;fontSource=https%3A%2F%2Ffonts.googleapis.com%2Fcss%3Ffamily%3DZCOOL%2BKuaiLe;fontSize=16;fontColor=default;" parent="3fp7J-1nxwor3pY37bPl-53" vertex="1">
          <mxGeometry width="131" height="31" as="geometry" />
        </mxCell>
        <mxCell id="3fp7J-1nxwor3pY37bPl-55" value="1" style="shape=partialRectangle;html=1;whiteSpace=wrap;connectable=0;strokeColor=inherit;overflow=hidden;fillColor=none;top=0;left=0;bottom=0;right=0;pointerEvents=1;rounded=1;sketch=1;jiggle=2;curveFitting=1;align=center;verticalAlign=middle;fontFamily=ZCOOL KuaiLe;fontSource=https%3A%2F%2Ffonts.googleapis.com%2Fcss%3Ffamily%3DZCOOL%2BKuaiLe;fontSize=16;fontColor=default;" parent="3fp7J-1nxwor3pY37bPl-54" vertex="1">
          <mxGeometry width="66" height="31" as="geometry">
            <mxRectangle width="66" height="31" as="alternateBounds" />
          </mxGeometry>
        </mxCell>
        <mxCell id="3fp7J-1nxwor3pY37bPl-56" value="v1" style="shape=partialRectangle;html=1;whiteSpace=wrap;connectable=0;strokeColor=inherit;overflow=hidden;fillColor=none;top=0;left=0;bottom=0;right=0;pointerEvents=1;rounded=1;sketch=1;jiggle=2;curveFitting=1;align=center;verticalAlign=middle;fontFamily=ZCOOL KuaiLe;fontSource=https%3A%2F%2Ffonts.googleapis.com%2Fcss%3Ffamily%3DZCOOL%2BKuaiLe;fontSize=16;fontColor=default;" parent="3fp7J-1nxwor3pY37bPl-54" vertex="1">
          <mxGeometry x="66" width="65" height="31" as="geometry">
            <mxRectangle width="65" height="31" as="alternateBounds" />
          </mxGeometry>
        </mxCell>
        <mxCell id="3fp7J-1nxwor3pY37bPl-57" value="" style="shape=tableRow;horizontal=0;startSize=0;swimlaneHead=0;swimlaneBody=0;strokeColor=inherit;top=0;left=0;bottom=0;right=0;collapsible=0;dropTarget=0;fillColor=none;points=[[0,0.5],[1,0.5]];portConstraint=eastwest;rounded=1;sketch=1;jiggle=2;curveFitting=1;align=center;verticalAlign=middle;fontFamily=ZCOOL KuaiLe;fontSource=https%3A%2F%2Ffonts.googleapis.com%2Fcss%3Ffamily%3DZCOOL%2BKuaiLe;fontSize=16;fontColor=default;" parent="3fp7J-1nxwor3pY37bPl-53" vertex="1">
          <mxGeometry y="31" width="131" height="31" as="geometry" />
        </mxCell>
        <mxCell id="3fp7J-1nxwor3pY37bPl-58" value="2" style="shape=partialRectangle;html=1;whiteSpace=wrap;connectable=0;strokeColor=inherit;overflow=hidden;fillColor=none;top=0;left=0;bottom=0;right=0;pointerEvents=1;rounded=1;sketch=1;jiggle=2;curveFitting=1;align=center;verticalAlign=middle;fontFamily=ZCOOL KuaiLe;fontSource=https%3A%2F%2Ffonts.googleapis.com%2Fcss%3Ffamily%3DZCOOL%2BKuaiLe;fontSize=16;fontColor=default;" parent="3fp7J-1nxwor3pY37bPl-57" vertex="1">
          <mxGeometry width="66" height="31" as="geometry">
            <mxRectangle width="66" height="31" as="alternateBounds" />
          </mxGeometry>
        </mxCell>
        <mxCell id="3fp7J-1nxwor3pY37bPl-59" value="v2" style="shape=partialRectangle;html=1;whiteSpace=wrap;connectable=0;strokeColor=inherit;overflow=hidden;fillColor=none;top=0;left=0;bottom=0;right=0;pointerEvents=1;rounded=1;sketch=1;jiggle=2;curveFitting=1;align=center;verticalAlign=middle;fontFamily=ZCOOL KuaiLe;fontSource=https%3A%2F%2Ffonts.googleapis.com%2Fcss%3Ffamily%3DZCOOL%2BKuaiLe;fontSize=16;fontColor=default;" parent="3fp7J-1nxwor3pY37bPl-57" vertex="1">
          <mxGeometry x="66" width="65" height="31" as="geometry">
            <mxRectangle width="65" height="31" as="alternateBounds" />
          </mxGeometry>
        </mxCell>
        <mxCell id="3fp7J-1nxwor3pY37bPl-60" value="" style="shape=tableRow;horizontal=0;startSize=0;swimlaneHead=0;swimlaneBody=0;strokeColor=inherit;top=0;left=0;bottom=0;right=0;collapsible=0;dropTarget=0;fillColor=none;points=[[0,0.5],[1,0.5]];portConstraint=eastwest;rounded=1;sketch=1;jiggle=2;curveFitting=1;align=center;verticalAlign=middle;fontFamily=ZCOOL KuaiLe;fontSource=https%3A%2F%2Ffonts.googleapis.com%2Fcss%3Ffamily%3DZCOOL%2BKuaiLe;fontSize=16;fontColor=default;" parent="3fp7J-1nxwor3pY37bPl-53" vertex="1">
          <mxGeometry y="62" width="131" height="21" as="geometry" />
        </mxCell>
        <mxCell id="3fp7J-1nxwor3pY37bPl-61" value="3" style="shape=partialRectangle;html=1;whiteSpace=wrap;connectable=0;strokeColor=inherit;overflow=hidden;fillColor=none;top=0;left=0;bottom=0;right=0;pointerEvents=1;rounded=1;sketch=1;jiggle=2;curveFitting=1;align=center;verticalAlign=middle;fontFamily=ZCOOL KuaiLe;fontSource=https%3A%2F%2Ffonts.googleapis.com%2Fcss%3Ffamily%3DZCOOL%2BKuaiLe;fontSize=16;fontColor=default;" parent="3fp7J-1nxwor3pY37bPl-60" vertex="1">
          <mxGeometry width="66" height="21" as="geometry">
            <mxRectangle width="66" height="21" as="alternateBounds" />
          </mxGeometry>
        </mxCell>
        <mxCell id="3fp7J-1nxwor3pY37bPl-62" value="v3" style="shape=partialRectangle;html=1;whiteSpace=wrap;connectable=0;strokeColor=inherit;overflow=hidden;fillColor=none;top=0;left=0;bottom=0;right=0;pointerEvents=1;rounded=1;sketch=1;jiggle=2;curveFitting=1;align=center;verticalAlign=middle;fontFamily=ZCOOL KuaiLe;fontSource=https%3A%2F%2Ffonts.googleapis.com%2Fcss%3Ffamily%3DZCOOL%2BKuaiLe;fontSize=16;fontColor=default;" parent="3fp7J-1nxwor3pY37bPl-60" vertex="1">
          <mxGeometry x="66" width="65" height="21" as="geometry">
            <mxRectangle width="65" height="21" as="alternateBounds" />
          </mxGeometry>
        </mxCell>
        <mxCell id="3fp7J-1nxwor3pY37bPl-63" value="" style="shape=tableRow;horizontal=0;startSize=0;swimlaneHead=0;swimlaneBody=0;strokeColor=inherit;top=0;left=0;bottom=0;right=0;collapsible=0;dropTarget=0;fillColor=none;points=[[0,0.5],[1,0.5]];portConstraint=eastwest;rounded=1;sketch=1;jiggle=2;curveFitting=1;align=center;verticalAlign=middle;fontFamily=ZCOOL KuaiLe;fontSource=https%3A%2F%2Ffonts.googleapis.com%2Fcss%3Ffamily%3DZCOOL%2BKuaiLe;fontSize=16;fontColor=default;" parent="3fp7J-1nxwor3pY37bPl-53" vertex="1">
          <mxGeometry y="83" width="131" height="32" as="geometry" />
        </mxCell>
        <mxCell id="3fp7J-1nxwor3pY37bPl-64" value="4" style="shape=partialRectangle;html=1;whiteSpace=wrap;connectable=0;strokeColor=inherit;overflow=hidden;fillColor=none;top=0;left=0;bottom=0;right=0;pointerEvents=1;rounded=1;sketch=1;jiggle=2;curveFitting=1;align=center;verticalAlign=middle;fontFamily=ZCOOL KuaiLe;fontSource=https%3A%2F%2Ffonts.googleapis.com%2Fcss%3Ffamily%3DZCOOL%2BKuaiLe;fontSize=16;fontColor=default;" parent="3fp7J-1nxwor3pY37bPl-63" vertex="1">
          <mxGeometry width="66" height="32" as="geometry">
            <mxRectangle width="66" height="32" as="alternateBounds" />
          </mxGeometry>
        </mxCell>
        <mxCell id="3fp7J-1nxwor3pY37bPl-65" value="v4" style="shape=partialRectangle;html=1;whiteSpace=wrap;connectable=0;strokeColor=inherit;overflow=hidden;fillColor=none;top=0;left=0;bottom=0;right=0;pointerEvents=1;rounded=1;sketch=1;jiggle=2;curveFitting=1;align=center;verticalAlign=middle;fontFamily=ZCOOL KuaiLe;fontSource=https%3A%2F%2Ffonts.googleapis.com%2Fcss%3Ffamily%3DZCOOL%2BKuaiLe;fontSize=16;fontColor=default;" parent="3fp7J-1nxwor3pY37bPl-63" vertex="1">
          <mxGeometry x="66" width="65" height="32" as="geometry">
            <mxRectangle width="65" height="32" as="alternateBounds" />
          </mxGeometry>
        </mxCell>
        <mxCell id="3fp7J-1nxwor3pY37bPl-66" value="" style="shape=tableRow;horizontal=0;startSize=0;swimlaneHead=0;swimlaneBody=0;strokeColor=inherit;top=0;left=0;bottom=0;right=0;collapsible=0;dropTarget=0;fillColor=none;points=[[0,0.5],[1,0.5]];portConstraint=eastwest;rounded=1;sketch=1;jiggle=2;curveFitting=1;align=center;verticalAlign=middle;fontFamily=ZCOOL KuaiLe;fontSource=https%3A%2F%2Ffonts.googleapis.com%2Fcss%3Ffamily%3DZCOOL%2BKuaiLe;fontSize=16;fontColor=default;" parent="3fp7J-1nxwor3pY37bPl-53" vertex="1">
          <mxGeometry y="115" width="131" height="31" as="geometry" />
        </mxCell>
        <mxCell id="3fp7J-1nxwor3pY37bPl-67" value="5" style="shape=partialRectangle;html=1;whiteSpace=wrap;connectable=0;strokeColor=inherit;overflow=hidden;fillColor=none;top=0;left=0;bottom=0;right=0;pointerEvents=1;rounded=1;sketch=1;jiggle=2;curveFitting=1;align=center;verticalAlign=middle;fontFamily=ZCOOL KuaiLe;fontSource=https%3A%2F%2Ffonts.googleapis.com%2Fcss%3Ffamily%3DZCOOL%2BKuaiLe;fontSize=16;fontColor=default;" parent="3fp7J-1nxwor3pY37bPl-66" vertex="1">
          <mxGeometry width="66" height="31" as="geometry">
            <mxRectangle width="66" height="31" as="alternateBounds" />
          </mxGeometry>
        </mxCell>
        <mxCell id="3fp7J-1nxwor3pY37bPl-68" value="v5" style="shape=partialRectangle;html=1;whiteSpace=wrap;connectable=0;strokeColor=inherit;overflow=hidden;fillColor=none;top=0;left=0;bottom=0;right=0;pointerEvents=1;rounded=1;sketch=1;jiggle=2;curveFitting=1;align=center;verticalAlign=middle;fontFamily=ZCOOL KuaiLe;fontSource=https%3A%2F%2Ffonts.googleapis.com%2Fcss%3Ffamily%3DZCOOL%2BKuaiLe;fontSize=16;fontColor=default;" parent="3fp7J-1nxwor3pY37bPl-66" vertex="1">
          <mxGeometry x="66" width="65" height="31" as="geometry">
            <mxRectangle width="65" height="31" as="alternateBounds" />
          </mxGeometry>
        </mxCell>
        <mxCell id="3fp7J-1nxwor3pY37bPl-69" value="elements&lt;div&gt;(存储数字属性、数组结构)&lt;/div&gt;" style="text;html=1;align=center;verticalAlign=middle;whiteSpace=wrap;rounded=0;fontFamily=ZCOOL KuaiLe;fontSource=https%3A%2F%2Ffonts.googleapis.com%2Fcss%3Ffamily%3DZCOOL%2BKuaiLe;fontSize=16;fontColor=default;" parent="3fp7J-1nxwor3pY37bPl-70" vertex="1">
          <mxGeometry y="-7" width="192" height="30" as="geometry" />
        </mxCell>
        <mxCell id="3fp7J-1nxwor3pY37bPl-91" value="按数字升序排列" style="text;html=1;align=center;verticalAlign=middle;whiteSpace=wrap;rounded=0;fontFamily=ZCOOL KuaiLe;fontSource=https%3A%2F%2Ffonts.googleapis.com%2Fcss%3Ffamily%3DZCOOL%2BKuaiLe;fontSize=16;fontColor=#FF3399;labelBackgroundColor=default;" parent="3fp7J-1nxwor3pY37bPl-70" vertex="1">
          <mxGeometry x="153" y="54" width="60" height="88" as="geometry" />
        </mxCell>
        <mxCell id="3fp7J-1nxwor3pY37bPl-71" style="edgeStyle=orthogonalEdgeStyle;rounded=0;orthogonalLoop=1;jettySize=auto;html=1;entryX=0;entryY=0.5;entryDx=0;entryDy=0;fontFamily=ZCOOL KuaiLe;fontSource=https%3A%2F%2Ffonts.googleapis.com%2Fcss%3Ffamily%3DZCOOL%2BKuaiLe;fontSize=16;fontColor=default;exitX=1;exitY=0.5;exitDx=0;exitDy=0;sketch=1;curveFitting=1;jiggle=2;" parent="3fp7J-1nxwor3pY37bPl-105" source="3fp7J-1nxwor3pY37bPl-45" target="3fp7J-1nxwor3pY37bPl-54" edge="1">
          <mxGeometry relative="1" as="geometry" />
        </mxCell>
        <mxCell id="3fp7J-1nxwor3pY37bPl-72" value="" style="group" parent="3fp7J-1nxwor3pY37bPl-105" vertex="1" connectable="0">
          <mxGeometry x="393" y="213" width="361" height="176.25" as="geometry" />
        </mxCell>
        <mxCell id="3fp7J-1nxwor3pY37bPl-73" value="" style="shape=table;startSize=0;container=1;collapsible=0;childLayout=tableLayout;rounded=1;sketch=1;jiggle=2;curveFitting=1;strokeColor=#82b366;align=center;verticalAlign=middle;fontFamily=ZCOOL KuaiLe;fontSource=https%3A%2F%2Ffonts.googleapis.com%2Fcss%3Ffamily%3DZCOOL%2BKuaiLe;fontSize=16;fontColor=default;fillColor=#d5e8d4;" parent="3fp7J-1nxwor3pY37bPl-72" vertex="1">
          <mxGeometry x="35.90826760151914" y="30" width="254.2693543675139" height="146.25" as="geometry" />
        </mxCell>
        <mxCell id="3fp7J-1nxwor3pY37bPl-74" value="" style="shape=tableRow;horizontal=0;startSize=0;swimlaneHead=0;swimlaneBody=0;strokeColor=inherit;top=0;left=0;bottom=0;right=0;collapsible=0;dropTarget=0;fillColor=none;points=[[0,0.5],[1,0.5]];portConstraint=eastwest;rounded=1;sketch=1;jiggle=2;curveFitting=1;align=center;verticalAlign=middle;fontFamily=ZCOOL KuaiLe;fontSource=https%3A%2F%2Ffonts.googleapis.com%2Fcss%3Ffamily%3DZCOOL%2BKuaiLe;fontSize=16;fontColor=default;" parent="3fp7J-1nxwor3pY37bPl-73" vertex="1">
          <mxGeometry width="254.2693543675139" height="31" as="geometry" />
        </mxCell>
        <mxCell id="3fp7J-1nxwor3pY37bPl-75" value="str1" style="shape=partialRectangle;html=1;whiteSpace=wrap;connectable=0;strokeColor=inherit;overflow=hidden;fillColor=none;top=0;left=0;bottom=0;right=0;pointerEvents=1;rounded=1;sketch=1;jiggle=2;curveFitting=1;align=center;verticalAlign=middle;fontFamily=ZCOOL KuaiLe;fontSource=https%3A%2F%2Ffonts.googleapis.com%2Fcss%3Ffamily%3DZCOOL%2BKuaiLe;fontSize=16;fontColor=default;" parent="3fp7J-1nxwor3pY37bPl-74" vertex="1">
          <mxGeometry width="128" height="31" as="geometry">
            <mxRectangle width="128" height="31" as="alternateBounds" />
          </mxGeometry>
        </mxCell>
        <mxCell id="3fp7J-1nxwor3pY37bPl-76" value="v1" style="shape=partialRectangle;html=1;whiteSpace=wrap;connectable=0;strokeColor=inherit;overflow=hidden;fillColor=none;top=0;left=0;bottom=0;right=0;pointerEvents=1;rounded=1;sketch=1;jiggle=2;curveFitting=1;align=center;verticalAlign=middle;fontFamily=ZCOOL KuaiLe;fontSource=https%3A%2F%2Ffonts.googleapis.com%2Fcss%3Ffamily%3DZCOOL%2BKuaiLe;fontSize=16;fontColor=default;" parent="3fp7J-1nxwor3pY37bPl-74" vertex="1">
          <mxGeometry x="128" width="126" height="31" as="geometry">
            <mxRectangle width="126" height="31" as="alternateBounds" />
          </mxGeometry>
        </mxCell>
        <mxCell id="3fp7J-1nxwor3pY37bPl-77" value="" style="shape=tableRow;horizontal=0;startSize=0;swimlaneHead=0;swimlaneBody=0;strokeColor=inherit;top=0;left=0;bottom=0;right=0;collapsible=0;dropTarget=0;fillColor=none;points=[[0,0.5],[1,0.5]];portConstraint=eastwest;rounded=1;sketch=1;jiggle=2;curveFitting=1;align=center;verticalAlign=middle;fontFamily=ZCOOL KuaiLe;fontSource=https%3A%2F%2Ffonts.googleapis.com%2Fcss%3Ffamily%3DZCOOL%2BKuaiLe;fontSize=16;fontColor=default;" parent="3fp7J-1nxwor3pY37bPl-73" vertex="1">
          <mxGeometry y="31" width="254.2693543675139" height="31" as="geometry" />
        </mxCell>
        <mxCell id="3fp7J-1nxwor3pY37bPl-78" value="str33" style="shape=partialRectangle;html=1;whiteSpace=wrap;connectable=0;strokeColor=inherit;overflow=hidden;fillColor=none;top=0;left=0;bottom=0;right=0;pointerEvents=1;rounded=1;sketch=1;jiggle=2;curveFitting=1;align=center;verticalAlign=middle;fontFamily=ZCOOL KuaiLe;fontSource=https%3A%2F%2Ffonts.googleapis.com%2Fcss%3Ffamily%3DZCOOL%2BKuaiLe;fontSize=16;fontColor=default;" parent="3fp7J-1nxwor3pY37bPl-77" vertex="1">
          <mxGeometry width="128" height="31" as="geometry">
            <mxRectangle width="128" height="31" as="alternateBounds" />
          </mxGeometry>
        </mxCell>
        <mxCell id="3fp7J-1nxwor3pY37bPl-79" value="v2" style="shape=partialRectangle;html=1;whiteSpace=wrap;connectable=0;strokeColor=inherit;overflow=hidden;fillColor=none;top=0;left=0;bottom=0;right=0;pointerEvents=1;rounded=1;sketch=1;jiggle=2;curveFitting=1;align=center;verticalAlign=middle;fontFamily=ZCOOL KuaiLe;fontSource=https%3A%2F%2Ffonts.googleapis.com%2Fcss%3Ffamily%3DZCOOL%2BKuaiLe;fontSize=16;fontColor=default;" parent="3fp7J-1nxwor3pY37bPl-77" vertex="1">
          <mxGeometry x="128" width="126" height="31" as="geometry">
            <mxRectangle width="126" height="31" as="alternateBounds" />
          </mxGeometry>
        </mxCell>
        <mxCell id="3fp7J-1nxwor3pY37bPl-80" value="" style="shape=tableRow;horizontal=0;startSize=0;swimlaneHead=0;swimlaneBody=0;strokeColor=inherit;top=0;left=0;bottom=0;right=0;collapsible=0;dropTarget=0;fillColor=none;points=[[0,0.5],[1,0.5]];portConstraint=eastwest;rounded=1;sketch=1;jiggle=2;curveFitting=1;align=center;verticalAlign=middle;fontFamily=ZCOOL KuaiLe;fontSource=https%3A%2F%2Ffonts.googleapis.com%2Fcss%3Ffamily%3DZCOOL%2BKuaiLe;fontSize=16;fontColor=default;" parent="3fp7J-1nxwor3pY37bPl-73" vertex="1">
          <mxGeometry y="62" width="254.2693543675139" height="21" as="geometry" />
        </mxCell>
        <mxCell id="3fp7J-1nxwor3pY37bPl-81" value="str3" style="shape=partialRectangle;html=1;whiteSpace=wrap;connectable=0;strokeColor=inherit;overflow=hidden;fillColor=none;top=0;left=0;bottom=0;right=0;pointerEvents=1;rounded=1;sketch=1;jiggle=2;curveFitting=1;align=center;verticalAlign=middle;fontFamily=ZCOOL KuaiLe;fontSource=https%3A%2F%2Ffonts.googleapis.com%2Fcss%3Ffamily%3DZCOOL%2BKuaiLe;fontSize=16;fontColor=default;" parent="3fp7J-1nxwor3pY37bPl-80" vertex="1">
          <mxGeometry width="128" height="21" as="geometry">
            <mxRectangle width="128" height="21" as="alternateBounds" />
          </mxGeometry>
        </mxCell>
        <mxCell id="3fp7J-1nxwor3pY37bPl-82" value="v3" style="shape=partialRectangle;html=1;whiteSpace=wrap;connectable=0;strokeColor=inherit;overflow=hidden;fillColor=none;top=0;left=0;bottom=0;right=0;pointerEvents=1;rounded=1;sketch=1;jiggle=2;curveFitting=1;align=center;verticalAlign=middle;fontFamily=ZCOOL KuaiLe;fontSource=https%3A%2F%2Ffonts.googleapis.com%2Fcss%3Ffamily%3DZCOOL%2BKuaiLe;fontSize=16;fontColor=default;" parent="3fp7J-1nxwor3pY37bPl-80" vertex="1">
          <mxGeometry x="128" width="126" height="21" as="geometry">
            <mxRectangle width="126" height="21" as="alternateBounds" />
          </mxGeometry>
        </mxCell>
        <mxCell id="3fp7J-1nxwor3pY37bPl-83" value="" style="shape=tableRow;horizontal=0;startSize=0;swimlaneHead=0;swimlaneBody=0;strokeColor=inherit;top=0;left=0;bottom=0;right=0;collapsible=0;dropTarget=0;fillColor=none;points=[[0,0.5],[1,0.5]];portConstraint=eastwest;rounded=1;sketch=1;jiggle=2;curveFitting=1;align=center;verticalAlign=middle;fontFamily=ZCOOL KuaiLe;fontSource=https%3A%2F%2Ffonts.googleapis.com%2Fcss%3Ffamily%3DZCOOL%2BKuaiLe;fontSize=16;fontColor=default;" parent="3fp7J-1nxwor3pY37bPl-73" vertex="1">
          <mxGeometry y="83" width="254.2693543675139" height="32" as="geometry" />
        </mxCell>
        <mxCell id="3fp7J-1nxwor3pY37bPl-84" value="a14" style="shape=partialRectangle;html=1;whiteSpace=wrap;connectable=0;strokeColor=inherit;overflow=hidden;fillColor=none;top=0;left=0;bottom=0;right=0;pointerEvents=1;rounded=1;sketch=1;jiggle=2;curveFitting=1;align=center;verticalAlign=middle;fontFamily=ZCOOL KuaiLe;fontSource=https%3A%2F%2Ffonts.googleapis.com%2Fcss%3Ffamily%3DZCOOL%2BKuaiLe;fontSize=16;fontColor=default;" parent="3fp7J-1nxwor3pY37bPl-83" vertex="1">
          <mxGeometry width="128" height="32" as="geometry">
            <mxRectangle width="128" height="32" as="alternateBounds" />
          </mxGeometry>
        </mxCell>
        <mxCell id="3fp7J-1nxwor3pY37bPl-85" value="v4" style="shape=partialRectangle;html=1;whiteSpace=wrap;connectable=0;strokeColor=inherit;overflow=hidden;fillColor=none;top=0;left=0;bottom=0;right=0;pointerEvents=1;rounded=1;sketch=1;jiggle=2;curveFitting=1;align=center;verticalAlign=middle;fontFamily=ZCOOL KuaiLe;fontSource=https%3A%2F%2Ffonts.googleapis.com%2Fcss%3Ffamily%3DZCOOL%2BKuaiLe;fontSize=16;fontColor=default;" parent="3fp7J-1nxwor3pY37bPl-83" vertex="1">
          <mxGeometry x="128" width="126" height="32" as="geometry">
            <mxRectangle width="126" height="32" as="alternateBounds" />
          </mxGeometry>
        </mxCell>
        <mxCell id="3fp7J-1nxwor3pY37bPl-86" value="" style="shape=tableRow;horizontal=0;startSize=0;swimlaneHead=0;swimlaneBody=0;strokeColor=inherit;top=0;left=0;bottom=0;right=0;collapsible=0;dropTarget=0;fillColor=none;points=[[0,0.5],[1,0.5]];portConstraint=eastwest;rounded=1;sketch=1;jiggle=2;curveFitting=1;align=center;verticalAlign=middle;fontFamily=ZCOOL KuaiLe;fontSource=https%3A%2F%2Ffonts.googleapis.com%2Fcss%3Ffamily%3DZCOOL%2BKuaiLe;fontSize=16;fontColor=default;" parent="3fp7J-1nxwor3pY37bPl-73" vertex="1">
          <mxGeometry y="115" width="254.2693543675139" height="31" as="geometry" />
        </mxCell>
        <mxCell id="3fp7J-1nxwor3pY37bPl-87" value="a5" style="shape=partialRectangle;html=1;whiteSpace=wrap;connectable=0;strokeColor=inherit;overflow=hidden;fillColor=none;top=0;left=0;bottom=0;right=0;pointerEvents=1;rounded=1;sketch=1;jiggle=2;curveFitting=1;align=center;verticalAlign=middle;fontFamily=ZCOOL KuaiLe;fontSource=https%3A%2F%2Ffonts.googleapis.com%2Fcss%3Ffamily%3DZCOOL%2BKuaiLe;fontSize=16;fontColor=default;" parent="3fp7J-1nxwor3pY37bPl-86" vertex="1">
          <mxGeometry width="128" height="31" as="geometry">
            <mxRectangle width="128" height="31" as="alternateBounds" />
          </mxGeometry>
        </mxCell>
        <mxCell id="3fp7J-1nxwor3pY37bPl-88" value="v5" style="shape=partialRectangle;html=1;whiteSpace=wrap;connectable=0;strokeColor=inherit;overflow=hidden;fillColor=none;top=0;left=0;bottom=0;right=0;pointerEvents=1;rounded=1;sketch=1;jiggle=2;curveFitting=1;align=center;verticalAlign=middle;fontFamily=ZCOOL KuaiLe;fontSource=https%3A%2F%2Ffonts.googleapis.com%2Fcss%3Ffamily%3DZCOOL%2BKuaiLe;fontSize=16;fontColor=default;" parent="3fp7J-1nxwor3pY37bPl-86" vertex="1">
          <mxGeometry x="128" width="126" height="31" as="geometry">
            <mxRectangle width="126" height="31" as="alternateBounds" />
          </mxGeometry>
        </mxCell>
        <mxCell id="3fp7J-1nxwor3pY37bPl-89" value="&lt;div&gt;properties&lt;/div&gt;&lt;div&gt;(存储字符串属性，&lt;font color=&quot;#00cc00&quot;&gt;小对象（属性数量&amp;lt;=30）&lt;/font&gt;采用数组)&lt;/div&gt;" style="text;html=1;align=center;verticalAlign=middle;whiteSpace=wrap;rounded=0;fontFamily=ZCOOL KuaiLe;fontSource=https%3A%2F%2Ffonts.googleapis.com%2Fcss%3Ffamily%3DZCOOL%2BKuaiLe;fontSize=16;fontColor=default;" parent="3fp7J-1nxwor3pY37bPl-72" vertex="1">
          <mxGeometry y="-7" width="361" height="30" as="geometry" />
        </mxCell>
        <mxCell id="3fp7J-1nxwor3pY37bPl-92" value="按属性创建属性排列" style="text;html=1;align=center;verticalAlign=middle;whiteSpace=wrap;rounded=0;fontFamily=ZCOOL KuaiLe;fontSource=https%3A%2F%2Ffonts.googleapis.com%2Fcss%3Ffamily%3DZCOOL%2BKuaiLe;fontSize=16;fontColor=#FF66B3;labelBackgroundColor=default;" parent="3fp7J-1nxwor3pY37bPl-72" vertex="1">
          <mxGeometry x="296.9325153374233" y="56" width="64.78527607361963" height="88" as="geometry" />
        </mxCell>
        <mxCell id="3fp7J-1nxwor3pY37bPl-90" style="edgeStyle=orthogonalEdgeStyle;shape=connector;rounded=0;sketch=1;jiggle=2;curveFitting=1;orthogonalLoop=1;jettySize=auto;html=1;entryX=0;entryY=0.5;entryDx=0;entryDy=0;strokeColor=default;align=center;verticalAlign=middle;fontFamily=ZCOOL KuaiLe;fontSource=https%3A%2F%2Ffonts.googleapis.com%2Fcss%3Ffamily%3DZCOOL%2BKuaiLe;fontSize=16;fontColor=default;labelBackgroundColor=default;endArrow=classic;exitX=1;exitY=0.25;exitDx=0;exitDy=0;" parent="3fp7J-1nxwor3pY37bPl-105" source="3fp7J-1nxwor3pY37bPl-46" target="3fp7J-1nxwor3pY37bPl-74" edge="1">
          <mxGeometry relative="1" as="geometry">
            <mxPoint x="201" y="219" as="sourcePoint" />
          </mxGeometry>
        </mxCell>
        <mxCell id="3fp7J-1nxwor3pY37bPl-102" value="" style="group" parent="3fp7J-1nxwor3pY37bPl-105" vertex="1" connectable="0">
          <mxGeometry x="384" y="400" width="360" height="78" as="geometry" />
        </mxCell>
        <mxCell id="3fp7J-1nxwor3pY37bPl-93" value="" style="shape=table;startSize=0;container=1;collapsible=0;childLayout=tableLayout;rounded=1;sketch=1;jiggle=2;curveFitting=1;strokeColor=#82b366;align=center;verticalAlign=middle;fontFamily=ZCOOL KuaiLe;fontSource=https%3A%2F%2Ffonts.googleapis.com%2Fcss%3Ffamily%3DZCOOL%2BKuaiLe;fontSize=16;fontColor=default;labelBackgroundColor=default;fillColor=#d5e8d4;" parent="3fp7J-1nxwor3pY37bPl-102" vertex="1">
          <mxGeometry y="38" width="360" height="40" as="geometry" />
        </mxCell>
        <mxCell id="3fp7J-1nxwor3pY37bPl-94" value="" style="shape=tableRow;horizontal=0;startSize=0;swimlaneHead=0;swimlaneBody=0;strokeColor=inherit;top=0;left=0;bottom=0;right=0;collapsible=0;dropTarget=0;fillColor=none;points=[[0,0.5],[1,0.5]];portConstraint=eastwest;rounded=1;sketch=1;jiggle=2;curveFitting=1;align=center;verticalAlign=middle;fontFamily=ZCOOL KuaiLe;fontSource=https%3A%2F%2Ffonts.googleapis.com%2Fcss%3Ffamily%3DZCOOL%2BKuaiLe;fontSize=16;fontColor=default;labelBackgroundColor=default;" parent="3fp7J-1nxwor3pY37bPl-93" vertex="1">
          <mxGeometry width="360" height="40" as="geometry" />
        </mxCell>
        <mxCell id="3fp7J-1nxwor3pY37bPl-95" value="str33&lt;span style=&quot;white-space: pre;&quot;&gt;&#x9;&lt;/span&gt;str1&lt;span style=&quot;white-space: pre;&quot;&gt;&#x9;&lt;/span&gt;a5&lt;span style=&quot;white-space: pre;&quot;&gt;&#x9;&lt;/span&gt;&lt;span style=&quot;white-space: pre;&quot;&gt;&#x9;&lt;/span&gt;a14&lt;span style=&quot;white-space: pre;&quot;&gt;&#x9;&lt;/span&gt;&lt;span style=&quot;white-space: pre;&quot;&gt;&#x9;&lt;/span&gt;str3" style="shape=partialRectangle;html=1;whiteSpace=wrap;connectable=0;strokeColor=inherit;overflow=hidden;fillColor=none;top=0;left=0;bottom=0;right=0;pointerEvents=1;rounded=1;sketch=1;jiggle=2;curveFitting=1;align=center;verticalAlign=middle;fontFamily=ZCOOL KuaiLe;fontSource=https%3A%2F%2Ffonts.googleapis.com%2Fcss%3Ffamily%3DZCOOL%2BKuaiLe;fontSize=16;fontColor=default;labelBackgroundColor=default;" parent="3fp7J-1nxwor3pY37bPl-94" vertex="1">
          <mxGeometry width="60" height="40" as="geometry">
            <mxRectangle width="60" height="40" as="alternateBounds" />
          </mxGeometry>
        </mxCell>
        <mxCell id="3fp7J-1nxwor3pY37bPl-96" value="a5" style="shape=partialRectangle;html=1;whiteSpace=wrap;connectable=0;strokeColor=inherit;overflow=hidden;fillColor=none;top=0;left=0;bottom=0;right=0;pointerEvents=1;rounded=1;sketch=1;jiggle=2;curveFitting=1;align=center;verticalAlign=middle;fontFamily=ZCOOL KuaiLe;fontSource=https%3A%2F%2Ffonts.googleapis.com%2Fcss%3Ffamily%3DZCOOL%2BKuaiLe;fontSize=16;fontColor=default;labelBackgroundColor=default;" parent="3fp7J-1nxwor3pY37bPl-94" vertex="1">
          <mxGeometry x="60" width="60" height="40" as="geometry">
            <mxRectangle width="60" height="40" as="alternateBounds" />
          </mxGeometry>
        </mxCell>
        <mxCell id="3fp7J-1nxwor3pY37bPl-97" value="a14" style="shape=partialRectangle;html=1;whiteSpace=wrap;connectable=0;strokeColor=inherit;overflow=hidden;fillColor=none;top=0;left=0;bottom=0;right=0;pointerEvents=1;rounded=1;sketch=1;jiggle=2;curveFitting=1;align=center;verticalAlign=middle;fontFamily=ZCOOL KuaiLe;fontSource=https%3A%2F%2Ffonts.googleapis.com%2Fcss%3Ffamily%3DZCOOL%2BKuaiLe;fontSize=16;fontColor=default;labelBackgroundColor=default;" parent="3fp7J-1nxwor3pY37bPl-94" vertex="1">
          <mxGeometry x="120" width="60" height="40" as="geometry">
            <mxRectangle width="60" height="40" as="alternateBounds" />
          </mxGeometry>
        </mxCell>
        <mxCell id="3fp7J-1nxwor3pY37bPl-98" value="str3" style="shape=partialRectangle;html=1;whiteSpace=wrap;connectable=0;strokeColor=inherit;overflow=hidden;fillColor=none;top=0;left=0;bottom=0;right=0;pointerEvents=1;rounded=1;sketch=1;jiggle=2;curveFitting=1;align=center;verticalAlign=middle;fontFamily=ZCOOL KuaiLe;fontSource=https%3A%2F%2Ffonts.googleapis.com%2Fcss%3Ffamily%3DZCOOL%2BKuaiLe;fontSize=16;fontColor=default;labelBackgroundColor=default;" parent="3fp7J-1nxwor3pY37bPl-94" vertex="1">
          <mxGeometry x="180" width="60" height="40" as="geometry">
            <mxRectangle width="60" height="40" as="alternateBounds" />
          </mxGeometry>
        </mxCell>
        <mxCell id="3fp7J-1nxwor3pY37bPl-99" value="str33" style="shape=partialRectangle;html=1;whiteSpace=wrap;connectable=0;strokeColor=inherit;overflow=hidden;fillColor=none;top=0;left=0;bottom=0;right=0;pointerEvents=1;rounded=1;sketch=1;jiggle=2;curveFitting=1;align=center;verticalAlign=middle;fontFamily=ZCOOL KuaiLe;fontSource=https%3A%2F%2Ffonts.googleapis.com%2Fcss%3Ffamily%3DZCOOL%2BKuaiLe;fontSize=16;fontColor=default;labelBackgroundColor=default;" parent="3fp7J-1nxwor3pY37bPl-94" vertex="1">
          <mxGeometry x="240" width="60" height="40" as="geometry">
            <mxRectangle width="60" height="40" as="alternateBounds" />
          </mxGeometry>
        </mxCell>
        <mxCell id="3fp7J-1nxwor3pY37bPl-100" value="..." style="shape=partialRectangle;html=1;whiteSpace=wrap;connectable=0;strokeColor=inherit;overflow=hidden;fillColor=none;top=0;left=0;bottom=0;right=0;pointerEvents=1;rounded=1;sketch=1;jiggle=2;curveFitting=1;align=center;verticalAlign=middle;fontFamily=ZCOOL KuaiLe;fontSource=https%3A%2F%2Ffonts.googleapis.com%2Fcss%3Ffamily%3DZCOOL%2BKuaiLe;fontSize=16;fontColor=default;labelBackgroundColor=default;" parent="3fp7J-1nxwor3pY37bPl-94" vertex="1">
          <mxGeometry x="300" width="60" height="40" as="geometry">
            <mxRectangle width="60" height="40" as="alternateBounds" />
          </mxGeometry>
        </mxCell>
        <mxCell id="3fp7J-1nxwor3pY37bPl-101" value="properties&lt;div&gt;(大对象(&lt;font color=&quot;#00cc00&quot;&gt;属性数量&amp;gt;30&lt;/font&gt;)采用哈希表，&lt;font color=&quot;#ff3399&quot;&gt;排列无序)&lt;/font&gt;&lt;/div&gt;" style="text;html=1;align=center;verticalAlign=middle;whiteSpace=wrap;rounded=0;fontFamily=ZCOOL KuaiLe;fontSource=https%3A%2F%2Ffonts.googleapis.com%2Fcss%3Ffamily%3DZCOOL%2BKuaiLe;fontSize=16;fontColor=default;labelBackgroundColor=default;" parent="3fp7J-1nxwor3pY37bPl-102" vertex="1">
          <mxGeometry x="10" width="339" height="30" as="geometry" />
        </mxCell>
        <mxCell id="3fp7J-1nxwor3pY37bPl-103" style="edgeStyle=orthogonalEdgeStyle;shape=connector;rounded=0;sketch=1;jiggle=2;curveFitting=1;orthogonalLoop=1;jettySize=auto;html=1;entryX=0;entryY=0.5;entryDx=0;entryDy=0;strokeColor=default;align=center;verticalAlign=middle;fontFamily=ZCOOL KuaiLe;fontSource=https%3A%2F%2Ffonts.googleapis.com%2Fcss%3Ffamily%3DZCOOL%2BKuaiLe;fontSize=16;fontColor=default;labelBackgroundColor=default;endArrow=classic;exitX=1;exitY=0.75;exitDx=0;exitDy=0;" parent="3fp7J-1nxwor3pY37bPl-105" source="3fp7J-1nxwor3pY37bPl-46" target="3fp7J-1nxwor3pY37bPl-94" edge="1">
          <mxGeometry relative="1" as="geometry" />
        </mxCell>
        <mxCell id="0XAEqNebhWBC7xsv0-xf-26" value="" style="group" vertex="1" connectable="0" parent="1">
          <mxGeometry x="140" y="1180" width="500" height="383" as="geometry" />
        </mxCell>
        <mxCell id="0XAEqNebhWBC7xsv0-xf-11" value="" style="group" vertex="1" connectable="0" parent="0XAEqNebhWBC7xsv0-xf-26">
          <mxGeometry width="239" height="383" as="geometry" />
        </mxCell>
        <mxCell id="0XAEqNebhWBC7xsv0-xf-2" value="" style="rounded=1;whiteSpace=wrap;html=1;sketch=1;jiggle=2;curveFitting=1;strokeColor=#82b366;align=center;verticalAlign=middle;fontFamily=ZCOOL KuaiLe;fontSource=https%3A%2F%2Ffonts.googleapis.com%2Fcss%3Ffamily%3DZCOOL%2BKuaiLe;fontSize=16;fontColor=default;fillColor=#d5e8d4;container=0;" vertex="1" parent="0XAEqNebhWBC7xsv0-xf-11">
          <mxGeometry width="239" height="382.99999999999994" as="geometry" />
        </mxCell>
        <mxCell id="0XAEqNebhWBC7xsv0-xf-3" value="obj" style="text;html=1;align=center;verticalAlign=middle;whiteSpace=wrap;rounded=0;fontFamily=ZCOOL KuaiLe;fontSource=https%3A%2F%2Ffonts.googleapis.com%2Fcss%3Ffamily%3DZCOOL%2BKuaiLe;fontSize=18;fontColor=default;container=0;" vertex="1" parent="0XAEqNebhWBC7xsv0-xf-11">
          <mxGeometry x="84.17980295566502" y="4.863492063492004" width="70.64039408866995" height="36.476190476190474" as="geometry" />
        </mxCell>
        <mxCell id="0XAEqNebhWBC7xsv0-xf-4" value="elements" style="rounded=1;whiteSpace=wrap;html=1;sketch=1;jiggle=2;curveFitting=1;strokeColor=#666666;align=center;verticalAlign=middle;fontFamily=ZCOOL KuaiLe;fontSize=16;fillColor=#f5f5f5;fontSource=https%3A%2F%2Ffonts.googleapis.com%2Fcss%3Ffamily%3DZCOOL%2BKuaiLe;container=0;fontColor=#333333;" vertex="1" parent="0XAEqNebhWBC7xsv0-xf-11">
          <mxGeometry x="51.21428571428572" y="152.00492063492084" width="141.2807881773399" height="48.63492063492063" as="geometry" />
        </mxCell>
        <mxCell id="0XAEqNebhWBC7xsv0-xf-5" value="properties" style="rounded=1;whiteSpace=wrap;html=1;sketch=1;jiggle=2;curveFitting=1;strokeColor=#666666;align=center;verticalAlign=middle;fontFamily=ZCOOL KuaiLe;fontSize=16;fillColor=#f5f5f5;fontSource=https%3A%2F%2Ffonts.googleapis.com%2Fcss%3Ffamily%3DZCOOL%2BKuaiLe;container=0;fontColor=#333333;" vertex="1" parent="0XAEqNebhWBC7xsv0-xf-11">
          <mxGeometry x="51.21428571428572" y="222.0044444444443" width="141.2807881773399" height="48.63492063492063" as="geometry" />
        </mxCell>
        <mxCell id="0XAEqNebhWBC7xsv0-xf-9" value="其他..." style="rounded=1;whiteSpace=wrap;html=1;sketch=1;jiggle=2;curveFitting=1;strokeColor=#666666;align=center;verticalAlign=middle;fontFamily=ZCOOL KuaiLe;fontSize=14;fillColor=#f5f5f5;fontSource=https%3A%2F%2Ffonts.googleapis.com%2Fcss%3Ffamily%3DZCOOL%2BKuaiLe;container=0;fontColor=#333333;" vertex="1" parent="0XAEqNebhWBC7xsv0-xf-11">
          <mxGeometry x="51.21428571428572" y="294.24126984126974" width="141.2807881773399" height="48.63492063492063" as="geometry" />
        </mxCell>
        <mxCell id="0XAEqNebhWBC7xsv0-xf-10" value="map" style="rounded=1;whiteSpace=wrap;html=1;sketch=1;jiggle=2;curveFitting=1;strokeColor=#d79b00;align=center;verticalAlign=middle;fontFamily=ZCOOL KuaiLe;fontSize=16;fillColor=#ffe6cc;fontSource=https%3A%2F%2Ffonts.googleapis.com%2Fcss%3Ffamily%3DZCOOL%2BKuaiLe;container=0;" vertex="1" parent="0XAEqNebhWBC7xsv0-xf-11">
          <mxGeometry x="51.21428571428572" y="72.00492063492084" width="141.2807881773399" height="48.63492063492063" as="geometry" />
        </mxCell>
        <mxCell id="0XAEqNebhWBC7xsv0-xf-12" value="" style="shape=table;startSize=0;container=1;collapsible=0;childLayout=tableLayout;sketch=1;curveFitting=1;jiggle=2;fontSize=14;fontFamily=ZCOOL KuaiLe;fontSource=https%3A%2F%2Ffonts.googleapis.com%2Fcss%3Ffamily%3DZCOOL%2BKuaiLe;" vertex="1" parent="0XAEqNebhWBC7xsv0-xf-26">
          <mxGeometry x="353" width="147" height="160" as="geometry" />
        </mxCell>
        <mxCell id="0XAEqNebhWBC7xsv0-xf-13" value="" style="shape=tableRow;horizontal=0;startSize=0;swimlaneHead=0;swimlaneBody=0;strokeColor=inherit;top=0;left=0;bottom=0;right=0;collapsible=0;dropTarget=0;fillColor=none;points=[[0,0.5],[1,0.5]];portConstraint=eastwest;fontSize=14;fontFamily=ZCOOL KuaiLe;fontSource=https%3A%2F%2Ffonts.googleapis.com%2Fcss%3Ffamily%3DZCOOL%2BKuaiLe;" vertex="1" parent="0XAEqNebhWBC7xsv0-xf-12">
          <mxGeometry width="147" height="40" as="geometry" />
        </mxCell>
        <mxCell id="0XAEqNebhWBC7xsv0-xf-14" value="属性" style="shape=partialRectangle;html=1;whiteSpace=wrap;connectable=0;strokeColor=inherit;overflow=hidden;fillColor=none;top=0;left=0;bottom=0;right=0;pointerEvents=1;fontSize=14;fontFamily=ZCOOL KuaiLe;fontSource=https%3A%2F%2Ffonts.googleapis.com%2Fcss%3Ffamily%3DZCOOL%2BKuaiLe;" vertex="1" parent="0XAEqNebhWBC7xsv0-xf-13">
          <mxGeometry width="74" height="40" as="geometry">
            <mxRectangle width="74" height="40" as="alternateBounds" />
          </mxGeometry>
        </mxCell>
        <mxCell id="0XAEqNebhWBC7xsv0-xf-15" value="偏移量" style="shape=partialRectangle;html=1;whiteSpace=wrap;connectable=0;strokeColor=inherit;overflow=hidden;fillColor=none;top=0;left=0;bottom=0;right=0;pointerEvents=1;fontSize=14;fontFamily=ZCOOL KuaiLe;fontSource=https%3A%2F%2Ffonts.googleapis.com%2Fcss%3Ffamily%3DZCOOL%2BKuaiLe;" vertex="1" parent="0XAEqNebhWBC7xsv0-xf-13">
          <mxGeometry x="74" width="73" height="40" as="geometry">
            <mxRectangle width="73" height="40" as="alternateBounds" />
          </mxGeometry>
        </mxCell>
        <mxCell id="0XAEqNebhWBC7xsv0-xf-16" value="" style="shape=tableRow;horizontal=0;startSize=0;swimlaneHead=0;swimlaneBody=0;strokeColor=inherit;top=0;left=0;bottom=0;right=0;collapsible=0;dropTarget=0;fillColor=none;points=[[0,0.5],[1,0.5]];portConstraint=eastwest;fontSize=14;fontFamily=ZCOOL KuaiLe;fontSource=https%3A%2F%2Ffonts.googleapis.com%2Fcss%3Ffamily%3DZCOOL%2BKuaiLe;" vertex="1" parent="0XAEqNebhWBC7xsv0-xf-12">
          <mxGeometry y="40" width="147" height="40" as="geometry" />
        </mxCell>
        <mxCell id="0XAEqNebhWBC7xsv0-xf-17" value="str1" style="shape=partialRectangle;html=1;whiteSpace=wrap;connectable=0;strokeColor=inherit;overflow=hidden;fillColor=none;top=0;left=0;bottom=0;right=0;pointerEvents=1;fontSize=14;fontFamily=ZCOOL KuaiLe;fontSource=https%3A%2F%2Ffonts.googleapis.com%2Fcss%3Ffamily%3DZCOOL%2BKuaiLe;" vertex="1" parent="0XAEqNebhWBC7xsv0-xf-16">
          <mxGeometry width="74" height="40" as="geometry">
            <mxRectangle width="74" height="40" as="alternateBounds" />
          </mxGeometry>
        </mxCell>
        <mxCell id="0XAEqNebhWBC7xsv0-xf-18" value="4" style="shape=partialRectangle;html=1;whiteSpace=wrap;connectable=0;strokeColor=inherit;overflow=hidden;fillColor=none;top=0;left=0;bottom=0;right=0;pointerEvents=1;fontSize=14;fontFamily=ZCOOL KuaiLe;fontSource=https%3A%2F%2Ffonts.googleapis.com%2Fcss%3Ffamily%3DZCOOL%2BKuaiLe;" vertex="1" parent="0XAEqNebhWBC7xsv0-xf-16">
          <mxGeometry x="74" width="73" height="40" as="geometry">
            <mxRectangle width="73" height="40" as="alternateBounds" />
          </mxGeometry>
        </mxCell>
        <mxCell id="0XAEqNebhWBC7xsv0-xf-19" value="" style="shape=tableRow;horizontal=0;startSize=0;swimlaneHead=0;swimlaneBody=0;strokeColor=inherit;top=0;left=0;bottom=0;right=0;collapsible=0;dropTarget=0;fillColor=none;points=[[0,0.5],[1,0.5]];portConstraint=eastwest;fontSize=14;fontFamily=ZCOOL KuaiLe;fontSource=https%3A%2F%2Ffonts.googleapis.com%2Fcss%3Ffamily%3DZCOOL%2BKuaiLe;" vertex="1" parent="0XAEqNebhWBC7xsv0-xf-12">
          <mxGeometry y="80" width="147" height="40" as="geometry" />
        </mxCell>
        <mxCell id="0XAEqNebhWBC7xsv0-xf-20" value="str33" style="shape=partialRectangle;html=1;whiteSpace=wrap;connectable=0;strokeColor=inherit;overflow=hidden;fillColor=none;top=0;left=0;bottom=0;right=0;pointerEvents=1;fontSize=14;fontFamily=ZCOOL KuaiLe;fontSource=https%3A%2F%2Ffonts.googleapis.com%2Fcss%3Ffamily%3DZCOOL%2BKuaiLe;" vertex="1" parent="0XAEqNebhWBC7xsv0-xf-19">
          <mxGeometry width="74" height="40" as="geometry">
            <mxRectangle width="74" height="40" as="alternateBounds" />
          </mxGeometry>
        </mxCell>
        <mxCell id="0XAEqNebhWBC7xsv0-xf-21" value="8" style="shape=partialRectangle;html=1;whiteSpace=wrap;connectable=0;strokeColor=inherit;overflow=hidden;fillColor=none;top=0;left=0;bottom=0;right=0;pointerEvents=1;fontSize=14;fontFamily=ZCOOL KuaiLe;fontSource=https%3A%2F%2Ffonts.googleapis.com%2Fcss%3Ffamily%3DZCOOL%2BKuaiLe;" vertex="1" parent="0XAEqNebhWBC7xsv0-xf-19">
          <mxGeometry x="74" width="73" height="40" as="geometry">
            <mxRectangle width="73" height="40" as="alternateBounds" />
          </mxGeometry>
        </mxCell>
        <mxCell id="0XAEqNebhWBC7xsv0-xf-22" value="" style="shape=tableRow;horizontal=0;startSize=0;swimlaneHead=0;swimlaneBody=0;strokeColor=inherit;top=0;left=0;bottom=0;right=0;collapsible=0;dropTarget=0;fillColor=none;points=[[0,0.5],[1,0.5]];portConstraint=eastwest;fontSize=14;fontFamily=ZCOOL KuaiLe;fontSource=https%3A%2F%2Ffonts.googleapis.com%2Fcss%3Ffamily%3DZCOOL%2BKuaiLe;" vertex="1" parent="0XAEqNebhWBC7xsv0-xf-12">
          <mxGeometry y="120" width="147" height="40" as="geometry" />
        </mxCell>
        <mxCell id="0XAEqNebhWBC7xsv0-xf-23" value="。。。" style="shape=partialRectangle;html=1;whiteSpace=wrap;connectable=0;strokeColor=inherit;overflow=hidden;fillColor=none;top=0;left=0;bottom=0;right=0;pointerEvents=1;fontSize=14;fontFamily=ZCOOL KuaiLe;fontSource=https%3A%2F%2Ffonts.googleapis.com%2Fcss%3Ffamily%3DZCOOL%2BKuaiLe;" vertex="1" parent="0XAEqNebhWBC7xsv0-xf-22">
          <mxGeometry width="74" height="40" as="geometry">
            <mxRectangle width="74" height="40" as="alternateBounds" />
          </mxGeometry>
        </mxCell>
        <mxCell id="0XAEqNebhWBC7xsv0-xf-24" value="" style="shape=partialRectangle;html=1;whiteSpace=wrap;connectable=0;strokeColor=inherit;overflow=hidden;fillColor=none;top=0;left=0;bottom=0;right=0;pointerEvents=1;fontSize=14;fontFamily=ZCOOL KuaiLe;fontSource=https%3A%2F%2Ffonts.googleapis.com%2Fcss%3Ffamily%3DZCOOL%2BKuaiLe;" vertex="1" parent="0XAEqNebhWBC7xsv0-xf-22">
          <mxGeometry x="74" width="73" height="40" as="geometry">
            <mxRectangle width="73" height="40" as="alternateBounds" />
          </mxGeometry>
        </mxCell>
        <mxCell id="0XAEqNebhWBC7xsv0-xf-25" style="edgeStyle=orthogonalEdgeStyle;rounded=0;orthogonalLoop=1;jettySize=auto;html=1;entryX=0;entryY=0.5;entryDx=0;entryDy=0;fontFamily=ZCOOL KuaiLe;fontSource=https%3A%2F%2Ffonts.googleapis.com%2Fcss%3Ffamily%3DZCOOL%2BKuaiLe;fontSize=14;fontColor=default;exitX=1;exitY=0.5;exitDx=0;exitDy=0;sketch=1;curveFitting=1;jiggle=2;" edge="1" parent="0XAEqNebhWBC7xsv0-xf-26" source="0XAEqNebhWBC7xsv0-xf-10" target="0XAEqNebhWBC7xsv0-xf-13">
          <mxGeometry relative="1" as="geometry" />
        </mxCell>
      </root>
    </mxGraphModel>
  </diagram>
</mxfile>
